<svg width="147" height="34" viewBox="0 0 147 34" fill="none" xmlns="http://www.w3.org/2000/svg">
<path d="M0 34H34.1283V0H0V34ZM4.29988 6.60432H22.7459C25.3334 6.60432 27.241 7.11234 28.4749 8.12839C29.6711 9.06918 30.351 10.5117 30.3195 12.0295C30.3384 13.0205 30.0614 13.9926 29.5263 14.8331C29.0667 15.5292 28.4434 16.1063 27.7131 16.5139C27.7635 16.5327 27.8139 16.5453 27.8642 16.5704C29.9481 17.3794 31.289 19.4178 31.1946 21.6381C31.2638 23.2876 30.5084 24.8681 29.1737 25.8528C27.8265 26.8626 25.8559 27.3643 23.2748 27.3643H4.29988V6.60432Z" fill="white"/>
<path d="M23.4259 10.6622H19.8374L15.6572 17.392L11.4769 10.6622H7.88843V23.3064H23.4259V10.6622Z" fill="white"/>
<path d="M93.8859 15.7048C93.162 15.247 92.2428 15.247 91.5188 15.7048C91.16 15.9494 90.8704 16.2819 90.6815 16.6707C90.4612 17.1474 90.3541 17.6679 90.3667 18.1885C90.3541 18.7091 90.4612 19.2234 90.6815 19.7C90.8641 20.0952 91.1537 20.4339 91.5188 20.6785C91.8714 20.9042 92.2806 21.0234 92.7024 21.0234C93.1242 21.0234 93.5334 20.9105 93.8859 20.6785C94.2448 20.4339 94.5344 20.0952 94.7107 19.7C94.9247 19.2234 95.0254 18.7091 95.0129 18.1885C95.0254 17.6679 94.9247 17.1474 94.7107 16.6707C94.5281 16.2756 94.2448 15.9432 93.8859 15.7048Z" fill="white"/>
<path d="M121.725 16.5077C121.983 16.3007 122.128 15.9808 122.103 15.6547C122.122 15.3223 121.983 15.0024 121.725 14.7891C121.392 14.5696 121.001 14.4693 120.605 14.4944H118.609V16.7962H120.605C121.001 16.8212 121.392 16.7209 121.725 16.5139V16.5077Z" fill="white"/>
<path d="M37.4021 0V34H146.303V0H37.4021ZM55.2815 23.3064L55.2689 17.3418L52.6689 22.1461H51.4664L48.8852 17.53V23.3001H46.4048V12.3807H48.6334L52.1086 18.7279L55.5082 12.3807H57.7557L57.7872 23.3001H55.2878L55.2815 23.3064ZM62.9181 23.3064H60.2865V13.0895H62.9181V23.3064ZM62.7922 11.1765C62.4837 11.5027 62.0493 11.6783 61.6023 11.6595C61.1553 11.6783 60.7272 11.5027 60.4187 11.1828C60.1165 10.8692 59.9529 10.4427 59.9654 10.0037C59.9529 9.56466 60.1165 9.14444 60.4187 8.82457C60.7272 8.5047 61.1553 8.33536 61.6023 8.34791C62.043 8.32909 62.4648 8.49216 62.7859 8.79321C63.0944 9.09426 63.258 9.51448 63.2392 9.94097C63.258 10.3925 63.0944 10.8316 62.7922 11.164V11.1765ZM72.2041 21.889C71.8326 22.4032 71.329 22.7984 70.7435 23.0367C70.0069 23.3315 69.2137 23.4757 68.4204 23.4569C67.6649 23.4569 66.9095 23.3503 66.1855 23.1433C65.5748 22.9865 65.0019 22.7168 64.4857 22.3531L65.3671 20.2269C65.8203 20.5342 66.3177 20.7788 66.8465 20.9419C67.3879 21.1238 67.9545 21.2116 68.5274 21.2179C68.9744 21.2555 69.4214 21.1677 69.818 20.9733C70.0573 20.829 70.2021 20.5656 70.1958 20.2896C70.2084 20.0701 70.095 19.8569 69.8999 19.7502C69.6543 19.6122 69.3899 19.5182 69.1129 19.4743C68.7856 19.4115 68.4267 19.3488 68.0427 19.2861C67.6461 19.2234 67.2557 19.1356 66.8717 19.029C66.4877 18.9286 66.1225 18.7593 65.7889 18.546C65.4552 18.3265 65.1845 18.0255 65.0019 17.6742C64.7879 17.2289 64.6871 16.7397 64.706 16.2505C64.6934 15.6421 64.8697 15.0463 65.2034 14.5383C65.5622 14.0177 66.0659 13.6163 66.6451 13.3717C67.3628 13.0707 68.1308 12.9264 68.9052 12.9452C69.541 12.9452 70.1769 13.0267 70.7938 13.171C71.3667 13.2964 71.9082 13.516 72.3992 13.8358L71.5241 15.9432C71.1212 15.6672 70.6742 15.4665 70.1958 15.3474C69.774 15.2407 69.3396 15.1906 68.9052 15.1843C68.4582 15.1529 68.0175 15.247 67.6209 15.4477C67.3753 15.5857 67.218 15.8491 67.218 16.1313C67.2054 16.3634 67.3187 16.5766 67.5138 16.7021C67.7594 16.8463 68.0238 16.953 68.3008 17.0031C68.6282 17.0784 68.987 17.1474 69.371 17.2038C69.7677 17.2603 70.158 17.3481 70.542 17.461C70.9198 17.5676 71.2849 17.7307 71.6123 17.9439C71.9396 18.1634 72.2104 18.4519 72.3992 18.7969C72.6196 19.2359 72.7266 19.7251 72.7014 20.2144C72.714 20.8165 72.5314 21.3997 72.1915 21.8952L72.2041 21.889ZM81.169 21.889C80.7975 22.4032 80.2939 22.7984 79.7084 23.0367C78.9718 23.3315 78.1786 23.4757 77.3853 23.4569C76.6298 23.4569 75.8744 23.3503 75.1504 23.1433C74.5397 22.9865 73.9668 22.7168 73.4506 22.3531L74.332 20.2269C74.7852 20.5342 75.2826 20.7788 75.8114 20.9419C76.3528 21.1238 76.9194 21.2116 77.4923 21.2179C77.9393 21.2555 78.3863 21.1677 78.7829 20.9733C79.0222 20.829 79.167 20.5656 79.1607 20.2896C79.1733 20.0701 79.0599 19.8569 78.8648 19.7502C78.6192 19.6122 78.3548 19.5182 78.0778 19.4743C77.7505 19.4115 77.3916 19.3488 77.0076 19.2861C76.611 19.2234 76.2206 19.1356 75.8366 19.029C75.4526 18.9286 75.0874 18.7655 74.7601 18.546C74.4264 18.3265 74.1557 18.0255 73.9731 17.6742C73.7591 17.2289 73.6583 16.7397 73.6772 16.2505C73.6646 15.6421 73.8409 15.0463 74.1746 14.5383C74.5334 14.0177 75.0371 13.6163 75.6163 13.3717C76.334 13.0707 77.102 12.9264 77.8764 12.9452C78.5122 12.9452 79.1481 13.0267 79.765 13.171C80.3379 13.2964 80.8794 13.516 81.3704 13.8358L80.4953 15.9432C80.0924 15.6672 79.6454 15.4665 79.167 15.3474C78.7452 15.2407 78.3108 15.1906 77.8764 15.1843C77.4294 15.1529 76.9887 15.247 76.5921 15.4477C76.3465 15.5857 76.1892 15.8491 76.1892 16.1313C76.1766 16.3634 76.2899 16.5766 76.485 16.7021C76.7306 16.8463 76.995 16.953 77.272 17.0031C77.5994 17.0784 77.9582 17.1474 78.3422 17.2038C78.7389 17.2603 79.1292 17.3481 79.5132 17.461C79.8909 17.5676 80.2561 17.7307 80.5835 17.9439C80.9108 18.1634 81.1815 18.4519 81.3704 18.7969C81.5908 19.2359 81.6978 19.7251 81.6726 20.2144C81.6852 20.8165 81.5026 21.3997 81.1627 21.8952L81.169 21.889ZM85.9284 23.3001H83.2969V13.0832H85.9284V23.3001ZM85.8025 11.1703C85.494 11.4964 85.0596 11.672 84.6126 11.6532C84.1656 11.672 83.7375 11.4964 83.4291 11.1765C83.1269 10.8629 82.9632 10.4365 82.9758 9.99742C82.9632 9.55838 83.1269 9.13817 83.4291 8.8183C83.7375 8.49843 84.1656 8.32909 84.6126 8.34163C85.0533 8.32282 85.4751 8.48589 85.7962 8.78694C86.1047 9.08799 86.2684 9.50821 86.2495 9.9347C86.2684 10.3863 86.1047 10.8253 85.8025 11.1577V11.1703ZM97.0401 20.8917C96.1965 22.4911 94.5156 23.482 92.7025 23.4444C91.7959 23.4632 90.9019 23.2249 90.1276 22.7607C89.3784 22.3029 88.7677 21.6569 88.3522 20.8917C87.9115 20.0576 87.6849 19.1293 87.7038 18.1885C87.6849 17.2415 87.9115 16.3007 88.3522 15.4602C88.7614 14.6888 89.3784 14.0491 90.1276 13.5975C91.7203 12.7006 93.672 12.7006 95.2711 13.5975C96.0202 14.0428 96.6309 14.6825 97.0464 15.4477C97.4871 16.2881 97.7074 17.2289 97.6886 18.1823C97.7074 19.123 97.4871 20.0513 97.0464 20.8854L97.0401 20.8917ZM108.725 23.3001H106.093V17.9063C106.093 17.0847 105.936 16.4763 105.615 16.0812C105.281 15.6798 104.777 15.4665 104.255 15.4916C103.858 15.4916 103.474 15.5857 103.134 15.7864C102.788 15.9996 102.517 16.3132 102.36 16.6895C102.158 17.185 102.064 17.7119 102.083 18.245V23.3001H99.4513V13.0832H101.97V14.3062C102.228 13.9801 102.536 13.6978 102.901 13.4783C103.531 13.1083 104.249 12.9139 104.979 12.9264C105.652 12.9139 106.32 13.0832 106.912 13.4093C107.503 13.7543 107.969 14.2686 108.253 14.8895C108.605 15.6923 108.775 16.5641 108.744 17.4422V23.2939L108.725 23.3001ZM124.224 22.5036C123.538 23.0367 122.531 23.3001 121.203 23.3001H115.971V12.3807H120.938C122.222 12.3807 123.179 12.6442 123.815 13.1773C124.438 13.6853 124.791 14.4442 124.766 15.247C124.797 16.0059 124.508 16.746 123.966 17.2791C123.828 17.3983 123.683 17.5049 123.532 17.599C123.834 17.7244 124.124 17.8937 124.382 18.1007C124.986 18.6652 125.314 19.468 125.263 20.2959C125.301 21.1551 124.917 21.9768 124.231 22.4973L124.224 22.5036ZM129.632 23.3001H127.001V13.0832H129.632V23.3001ZM129.506 11.1703C129.198 11.4964 128.764 11.672 128.317 11.6532C127.87 11.672 127.441 11.4964 127.133 11.1765C126.831 10.8629 126.667 10.4365 126.68 9.99742C126.667 9.55838 126.831 9.13817 127.133 8.8183C127.441 8.49843 127.87 8.32909 128.317 8.34163C128.757 8.32282 129.179 8.48589 129.5 8.78694C129.809 9.08799 129.972 9.50821 129.953 9.9347C129.972 10.3863 129.809 10.8253 129.506 11.1577V11.1703ZM136.973 23.2876C136.589 23.3942 136.199 23.4507 135.802 23.4507C134.877 23.5071 133.97 23.1747 133.303 22.5287C132.705 21.914 132.409 20.9983 132.409 19.7816V15.5857H131.005V13.309H132.409V10.819H135.04V13.309H137.3V15.5857H135.04V19.744C135.015 20.1015 135.122 20.459 135.342 20.7412C135.55 20.9795 135.852 21.105 136.167 21.0924C136.557 21.105 136.935 20.967 137.231 20.7098L137.942 22.7984C137.653 23.0242 137.326 23.1872 136.973 23.2813V23.2876Z" fill="white"/>
<path d="M122.178 19.098C121.832 18.8785 121.429 18.7781 121.02 18.8032H118.603V21.1991H121.02C121.429 21.2242 121.832 21.1175 122.178 20.898C122.676 20.4464 122.714 19.675 122.254 19.1795C122.229 19.1544 122.204 19.1293 122.178 19.1043V19.098Z" fill="white"/>
</svg>
