<?xml version="1.0" standalone="no"?>
<!DOCTYPE svg PUBLIC "-//W3C//DTD SVG 20010904//EN"
 "http://www.w3.org/TR/2001/REC-SVG-20010904/DTD/svg10.dtd">
<svg version="1.0" xmlns="http://www.w3.org/2000/svg"
 width="700.000000pt" height="700.000000pt" viewBox="0 0 700.000000 700.000000"
 preserveAspectRatio="xMidYMid meet">
<metadata>
Created by potrace 1.14, written by Peter Selinger 2001-2017
</metadata>
<g transform="translate(0.000000,700.000000) scale(0.100000,-0.100000)"
fill="#000000" stroke="none">
<path d="M0 3500 l0 -3500 3500 0 3500 0 0 3500 0 3500 -3500 0 -3500 0 0
-3500z m5080 2117 c149 -23 314 -62 414 -99 365 -133 612 -398 699 -748 26
-105 30 -344 8 -455 -54 -273 -213 -515 -438 -665 l-73 -49 85 -40 c338 -158
561 -462 615 -836 23 -164 6 -393 -40 -533 -74 -225 -220 -418 -411 -544 -194
-129 -395 -200 -704 -251 -130 -21 -138 -21 -2242 -24 l-2113 -3 0 2135 0
2136 2043 -4 c1877 -3 2051 -4 2157 -20z"/>
<path d="M1620 3505 l0 -1305 1593 2 1592 3 0 1300 0 1300 -366 3 -366 2 -428
-690 c-235 -379 -430 -690 -434 -690 -3 0 -197 309 -431 688 l-425 687 -368 3
-367 2 0 -1305z"/>
</g>
</svg>
