<svg width="32" height="32" viewBox="0 0 32 32" fill="none" xmlns="http://www.w3.org/2000/svg">
<g clip-path="url(#clip0_244_1159)">
<path d="M10 30H8V27H4V30H2V27C2.00061 26.4698 2.21152 25.9614 2.58646 25.5865C2.9614 25.2115 3.46975 25.0006 4 25H8C8.53025 25.0006 9.0386 25.2115 9.41354 25.5865C9.78848 25.9614 9.99939 26.4698 10 27V30Z" fill="black"/>
<path d="M30 30H28V27H24V30H22V27C22.0006 26.4698 22.2115 25.9614 22.5865 25.5865C22.9614 25.2115 23.4698 25.0006 24 25H28C28.5302 25.0006 29.0386 25.2115 29.4135 25.5865C29.7885 25.9614 29.9994 26.4698 30 27V30Z" fill="black"/>
<path d="M20 30H18V27H14V30H12V27C12.0006 26.4698 12.2115 25.9614 12.5865 25.5865C12.9614 25.2115 13.4698 25.0006 14 25H18C18.5302 25.0006 19.0386 25.2115 19.4135 25.5865C19.7885 25.9614 19.9994 26.4698 20 27V30Z" fill="black"/>
<path d="M16 24C17.1046 24 18 23.1046 18 22C18 20.8954 17.1046 20 16 20C14.8954 20 14 20.8954 14 22C14 23.1046 14.8954 24 16 24Z" fill="black"/>
<path d="M6 24C7.10457 24 8 23.1046 8 22C8 20.8954 7.10457 20 6 20C4.89543 20 4 20.8954 4 22C4 23.1046 4.89543 24 6 24Z" fill="black"/>
<path d="M26 24C27.1046 24 28 23.1046 28 22C28 20.8954 27.1046 20 26 20C24.8954 20 24 20.8954 24 22C24 23.1046 24.8954 24 26 24Z" fill="black"/>
<path d="M21 20C22.1046 20 23 19.1046 23 18C23 16.8954 22.1046 16 21 16C19.8954 16 19 16.8954 19 18C19 19.1046 19.8954 20 21 20Z" fill="black"/>
<path d="M11 20C12.1046 20 13 19.1046 13 18C13 16.8954 12.1046 16 11 16C9.89543 16 9 16.8954 9 18C9 19.1046 9.89543 20 11 20Z" fill="black"/>
<path d="M26 14H6C5.46975 13.9994 4.9614 13.7885 4.58646 13.4135C4.21152 13.0386 4.00061 12.5302 4 12V4C4.00061 3.46975 4.21152 2.9614 4.58646 2.58646C4.9614 2.21152 5.46975 2.00061 6 2H26C26.5302 2.00061 27.0386 2.21152 27.4135 2.58646C27.7885 2.9614 27.9994 3.46975 28 4V12C27.9994 12.5302 27.7885 13.0386 27.4135 13.4135C27.0386 13.7885 26.5302 13.9994 26 14ZM6 4V12H26V4H6Z" fill="black"/>
</g>
<defs>
<clipPath id="clip0_244_1159">
<rect width="32" height="32" fill="white"/>
</clipPath>
</defs>
</svg>
