<svg width="32" height="32" viewBox="0 0 32 32" fill="none" xmlns="http://www.w3.org/2000/svg">
<g clip-path="url(#clip0_244_1354)">
<path fill-rule="evenodd" clip-rule="evenodd" d="M18.7241 8.5342C19.7135 8.21885 20.7411 8.03914 21.7788 8C26.3706 8 28 12.3094 28 16C28 23.51 23.9307 27.999 20 28C19.1417 27.9545 18.2986 27.7547 17.5112 27.41C17.032 27.1952 16.5221 27.0569 16 27C15.479 27.057 14.9701 27.1953 14.492 27.41C13.7042 27.7546 12.8607 27.9545 12.002 28H12.0005C8.0679 27.999 4 23.51 4 16C4 11.0652 6.311 8 10.0317 8C11.1092 8.04477 12.1768 8.22457 13.2095 8.5352C13.7698 8.6793 14.3086 8.8121 14.8267 8.9C14.5896 8.06703 14.0881 7.33373 13.3979 6.81064C12.7076 6.28755 11.866 6.00304 11 6V4C12.4075 4.00229 13.7694 4.49885 14.848 5.40298C15.9267 6.30712 16.6535 7.56138 16.9016 8.9468C17.5173 8.84841 18.1261 8.7106 18.7241 8.5342ZM18.2095 25.5361C18.7759 25.7906 19.3813 25.9475 20 26C22.9482 25.9988 26 22.2586 26 16C26 14.9978 25.7964 10 21.7788 10C20.9189 10.0434 20.0684 10.1993 19.249 10.4639C18.2778 10.7712 17.2709 10.9514 16.2534 11H15.7612C14.7275 10.9464 13.704 10.7693 12.7124 10.4726C11.8413 10.207 10.9411 10.0483 10.0317 10C6.3931 10 6 14.1963 6 16C6 22.2575 9.05026 25.9975 12 26C12.6198 25.9473 13.2263 25.7904 13.7939 25.5361C14.4915 25.2274 15.2386 25.0459 16 25C16.7625 25.0458 17.5108 25.2273 18.2095 25.5361ZM17 7H18C18.5303 6.99944 19.0386 6.78855 19.4136 6.4136C19.7886 6.03865 19.9994 5.53026 20 5V4H19C18.4697 4.00056 17.9614 4.21145 17.5864 4.5864C17.2114 4.96135 17.0006 5.46974 17 6V7Z" fill="black"/>
</g>
<defs>
<clipPath id="clip0_244_1354">
<rect width="32" height="32" fill="white"/>
</clipPath>
</defs>
</svg>
