<svg width="32" height="32" viewBox="0 0 32 32" fill="none" xmlns="http://www.w3.org/2000/svg">
<path fill-rule="evenodd" clip-rule="evenodd" d="M16.6123 2.21374C16.4348 2.07523 16.2161 2 15.9909 2C15.7658 2 15.5471 2.07523 15.3696 2.21374L1 13.4193L2.2427 14.991L4 13.6208V25.9999C4.00108 26.53 4.21215 27.0381 4.58698 27.413C4.96182 27.7878 5.4699 27.9989 6 27.9999H11V26V25.9999H6V12.0614L16 4.27144L26 12.0719V16H28V13.6299L29.7573 14.9999L31 13.4281L16.6123 2.21374Z" fill="black"/>
<path d="M23.586 19.414L27.166 23L23.584 26.587L25 28L30 23L25 18L23.586 19.414Z" fill="black"/>
<path d="M20.414 19.414L16.834 23L20.416 26.587L19 28L14 23L19 18L20.414 19.414Z" fill="black"/>
</svg>
