<svg width="32" height="32" viewBox="0 0 32 32" fill="none" xmlns="http://www.w3.org/2000/svg">
<g clip-path="url(#clip0_244_1155)">
<path d="M28 30H22C21.4698 29.9994 20.9614 29.7885 20.5865 29.4135C20.2115 29.0386 20.0006 28.5302 20 28V22C20.0006 21.4698 20.2115 20.9614 20.5865 20.5865C20.9614 20.2115 21.4698 20.0006 22 20H28C28.5302 20.0006 29.0386 20.2115 29.4135 20.5865C29.7885 20.9614 29.9994 21.4698 30 22V28C29.9994 28.5302 29.7885 29.0386 29.4135 29.4135C29.0386 29.7885 28.5302 29.9994 28 30ZM22 22H21.9988L22 28H28V22H22Z" fill="black"/>
<path d="M18 26H12C11.2046 25.9991 10.4421 25.6828 9.87964 25.1204C9.31722 24.5579 9.00087 23.7954 9 23V19H11V23C11.0003 23.2651 11.1057 23.5193 11.2932 23.7068C11.4807 23.8943 11.7349 23.9997 12 24H18V26Z" fill="black"/>
<path d="M26 18H24V15C23.9997 14.7349 23.8943 14.4807 23.7068 14.2932C23.5193 14.1057 23.2651 14.0003 23 14H18V12H23C23.7954 12.0009 24.5579 12.3172 25.1204 12.8796C25.6828 13.4421 25.9991 14.2046 26 15V18Z" fill="black"/>
<path d="M15 18C14.8256 18.0001 14.6542 17.9545 14.5029 17.8677L10 15.2886L5.4968 17.8677C5.32792 17.9645 5.13448 18.0098 4.9402 17.9982C4.74592 17.9867 4.55924 17.9186 4.40306 17.8025C4.24687 17.6864 4.12796 17.5272 4.06091 17.3445C3.99386 17.1618 3.98159 16.9635 4.0256 16.7739L5.0874 12.2019L2.269 9.18241C2.14564 9.05026 2.06041 8.88713 2.02238 8.7104C1.98435 8.53366 1.99494 8.34992 2.05303 8.17872C2.11112 8.00753 2.21453 7.85528 2.35226 7.73818C2.48999 7.62108 2.65689 7.5435 2.8352 7.51371L7.0352 6.81181L9.1006 2.56271C9.18172 2.39579 9.3077 2.25473 9.46443 2.15533C9.62116 2.05593 9.80246 2.00211 9.98804 1.99989C10.1736 1.99767 10.3562 2.04714 10.5152 2.14276C10.6743 2.23838 10.8036 2.37637 10.8887 2.54131L13.0933 6.81231L17.1697 7.51441C17.3475 7.545 17.5137 7.62311 17.6506 7.74046C17.7876 7.85781 17.8903 8.01002 17.9479 8.18099C18.0054 8.35195 18.0156 8.53529 17.9774 8.71159C17.9393 8.88788 17.8541 9.05057 17.731 9.18241L14.9126 12.2024L15.9739 16.7742C16.0079 16.9208 16.0083 17.0732 15.9752 17.22C15.9421 17.3668 15.8763 17.5042 15.7827 17.6221C15.6891 17.7399 15.5701 17.8351 15.4345 17.9005C15.299 17.966 15.1505 18 15 18ZM10 13C10 13 10.343 13.18 10.4971 13.2686L13.5071 14.9927L12.7234 11.6164L15.0054 9.17111L11.7723 8.61421L10.0267 5.23221L8.3829 8.61441L5.002 9.17941L7.2765 11.6164L6.4924 14.9927L9.5029 13.2686C9.657 13.18 10 13 10 13Z" fill="black"/>
</g>
<defs>
<clipPath id="clip0_244_1155">
<rect width="32" height="32" fill="white"/>
</clipPath>
</defs>
</svg>
